<svg xmlns="http://www.w3.org/2000/svg" viewBox="0 0 390 844" fill="none">
  <!-- faint graph paper -->
  <defs>
    <pattern id="grid" width="22" height="22" patternUnits="userSpaceOnUse">
      <path d="M22 0H0V22" fill="none" stroke="#C5D3E6" stroke-width="1" opacity=".55"/>
    </pattern>
  </defs>
  <rect width="390" height="844" fill="#F7FAFF"/>
  <rect width="390" height="844" fill="url(#grid)" opacity=".7"/>

  <g fill="none" stroke="#8FA8C8" stroke-width="1.6" stroke-linecap="round" stroke-linejoin="round" opacity=".42">
    <!-- triangle left -->
    <path d="M28 170 58 122 88 170Z"/><path d="M36 170h44"/>
    <!-- cube top right -->
    <path d="M300 118h42v36H300z"/><path d="M300 118l18-14 24 14"/><path d="M318 104v14"/><path d="M342 118l-24-14"/>
    <!-- axes -->
    <path d="M42 470v-70h70"/><path d="M42 430h18M42 410h28M60 470v-18"/>
    <!-- graph -->
    <path d="M280 520c18-28 28-20 40-40 10-16 22-12 34-28"/>
    <!-- sqrt -->
    <path d="M48 620h10l8-28 14 52 12-24h22"/>
    <!-- small diamond -->
    <path d="M310 250 328 262 310 274 292 262Z"/>
  </g>

  <g fill="#8FA8C8" opacity=".34" font-family="Segoe UI, Helvetica, sans-serif" font-weight="700">
    <text transform="translate(24 220) rotate(-11)" font-size="15">2x+3=7</text>
    <text transform="translate(250 236) rotate(8)" font-size="14">a²+b²=c²</text>
    <text x="318" y="420" font-size="28">À</text>
    <text transform="translate(36 690) rotate(6)" font-size="16">x</text>
    <text transform="translate(250 700) rotate(-7)" font-size="14">(a+b)²</text>
  </g>
</svg>
